<svg xmlns="http://www.w3.org/2000/svg" xmlns:xlink="http://www.w3.org/1999/xlink" viewBox="0 0 525.39 410.06"><defs><style>.cls-1,.cls-10,.cls-5,.cls-51,.cls-58,.cls-6{fill:none;}.cls-2{isolation:isolate;}.cls-3{opacity:0.75;}.cls-4{fill:#edeff4;}.cls-10,.cls-5,.cls-6{stroke:#1b5e20;}.cls-5,.cls-58,.cls-6{stroke-linecap:round;}.cls-5,.cls-6{stroke-linejoin:round;stroke-width:2px;}.cls-6{stroke-dasharray:5 5;}.cls-21,.cls-22,.cls-51,.cls-52,.cls-7{mix-blend-mode:multiply;}.cls-8{fill:url(#linear-gradient);}.cls-9{fill:url(#linear-gradient-2);}.cls-10,.cls-51,.cls-58{stroke-miterlimit:10;}.cls-10{stroke-width:3px;}.cls-11{fill:url(#linear-gradient-3);}.cls-12,.cls-33{fill:#1b5e20;}.cls-13{fill:url(#linear-gradient-4);}.cls-14{fill:url(#linear-gradient-5);}.cls-15{fill:url(#linear-gradient-6);}.cls-16,.cls-17,.cls-35{fill:#fff;}.cls-16,.cls-21,.cls-51{opacity:0.3;}.cls-18{fill:url(#Degradado_sin_nombre_8);}.cls-19{fill:url(#Degradado_sin_nombre_9);}.cls-20{fill:#fccc54;}.cls-21,.cls-22,.cls-53{fill:#ffbe00;}.cls-23,.cls-56{fill:#ffe6b3;}.cls-23,.cls-24,.cls-52{opacity:0.5;}.cls-24{fill:#fce8c5;}.cls-25{fill:url(#Degradado_sin_nombre_9-2);}.cls-26{fill:#363;}.cls-27{fill:url(#Degradado_sin_nombre_7);}.cls-28{fill:#393;}.cls-29{fill:url(#linear-gradient-7);}.cls-30{fill:url(#linear-gradient-8);}.cls-31{clip-path:url(#clip-path);}.cls-32{fill:url(#linear-gradient-9);}.cls-33,.cls-34{opacity:0.4;}.cls-35,.cls-56{opacity:0.2;}.cls-36{fill:url(#linear-gradient-10);}.cls-37{fill:url(#Degradado_sin_nombre_9-3);}.cls-38{fill:url(#linear-gradient-11);}.cls-39{fill:url(#Degradado_sin_nombre_14);}.cls-40{fill:url(#Degradado_sin_nombre_8-2);}.cls-41{fill:url(#Degradado_sin_nombre_14-2);}.cls-42{fill:url(#Degradado_sin_nombre_8-3);}.cls-43{fill:url(#linear-gradient-12);}.cls-44{fill:url(#Degradado_sin_nombre_2);}.cls-45{fill:url(#Degradado_sin_nombre_19);}.cls-46{fill:url(#Degradado_sin_nombre_2-2);}.cls-47{fill:url(#Degradado_sin_nombre_8-4);}.cls-48{fill:url(#Degradado_sin_nombre_8-5);}.cls-49{fill:url(#Degradado_sin_nombre_9-4);}.cls-50{fill:url(#Degradado_sin_nombre_25);}.cls-51{stroke:#ffbe00;stroke-width:0.5px;}.cls-54{opacity:0.7;}.cls-55{clip-path:url(#clip-path-2);}.cls-57{fill:url(#linear-gradient-13);}.cls-58{stroke:#f9962b;stroke-width:0.57px;}.cls-59{fill:url(#linear-gradient-14);}.cls-60{fill:url(#linear-gradient-15);}.cls-61{fill:url(#linear-gradient-16);}.cls-62{fill:url(#linear-gradient-17);}.cls-63{fill:url(#linear-gradient-18);}.cls-64{fill:url(#linear-gradient-19);}.cls-65{fill:url(#linear-gradient-20);}.cls-66{fill:url(#linear-gradient-21);}</style><linearGradient id="linear-gradient" x1="163.82" y1="508.15" x2="219.18" y2="317.46" gradientTransform="matrix(0.63, -0.77, 0.77, 0.63, -252.38, 228.4)" gradientUnits="userSpaceOnUse"><stop offset="0.32" stop-color="#363"/><stop offset="1" stop-color="#393"/></linearGradient><linearGradient id="linear-gradient-2" x1="227.86" y1="368" x2="149.95" y2="144.49" gradientUnits="userSpaceOnUse"><stop offset="0" stop-color="#393"/><stop offset="1" stop-color="#396"/></linearGradient><linearGradient id="linear-gradient-3" x1="488.47" y1="264.11" x2="602.92" y2="264.11" gradientUnits="userSpaceOnUse"><stop offset="0" stop-color="#393"/><stop offset="0.99" stop-color="#396"/></linearGradient><linearGradient id="linear-gradient-4" x1="487.02" y1="333.61" x2="542.38" y2="142.91" gradientUnits="userSpaceOnUse"><stop offset="0.32" stop-color="#363"/><stop offset="1" stop-color="#377738"/></linearGradient><linearGradient id="linear-gradient-5" x1="539.41" y1="421.33" x2="594.77" y2="230.63" gradientTransform="translate(231.15 -231.15) rotate(30.63)" gradientUnits="userSpaceOnUse"><stop offset="0" stop-color="#f4ba38"/><stop offset="1" stop-color="#ffd349"/></linearGradient><linearGradient id="linear-gradient-6" x1="353.3" y1="290.21" x2="520.31" y2="290.21" gradientTransform="matrix(1, 0, 0, 1, 0, 0)" xlink:href="#linear-gradient-5"/><radialGradient id="Degradado_sin_nombre_8" cx="483.71" cy="236.85" r="40.47" gradientTransform="translate(-3.45 36.55)" gradientUnits="userSpaceOnUse"><stop offset="0" stop-color="#f0dc20"/><stop offset="1" stop-color="#f07a20"/></radialGradient><linearGradient id="Degradado_sin_nombre_9" x1="264.56" y1="370.03" x2="330.17" y2="370.03" gradientUnits="userSpaceOnUse"><stop offset="0" stop-color="#fec008"/><stop offset="1" stop-color="#fe9c03"/></linearGradient><linearGradient id="Degradado_sin_nombre_9-2" x1="342.15" y1="370.03" x2="407.76" y2="370.03" xlink:href="#Degradado_sin_nombre_9"/><linearGradient id="Degradado_sin_nombre_7" x1="201.58" y1="101.07" x2="298.47" y2="101.07" gradientUnits="userSpaceOnUse"><stop offset="0" stop-color="#1c2d94" stop-opacity="0"/><stop offset="1" stop-color="#1094d2" stop-opacity="0.2"/></linearGradient><linearGradient id="linear-gradient-7" x1="199.98" y1="177.04" x2="299.78" y2="177.04" gradientUnits="userSpaceOnUse"><stop offset="0" stop-color="#9c9"/><stop offset="1" stop-color="#9c9" stop-opacity="0"/></linearGradient><linearGradient id="linear-gradient-8" x1="333.66" y1="244.33" x2="417.69" y2="244.33" gradientTransform="translate(414.89 -184.35) rotate(63.3)" gradientUnits="userSpaceOnUse"><stop offset="0" stop-color="#9c9"/><stop offset="1" stop-color="#6c6" stop-opacity="0"/></linearGradient><clipPath id="clip-path" transform="translate(-107.09 -30.1)"><rect class="cls-1" x="307.07" y="200.68" width="99.79" height="74.54"/></clipPath><linearGradient id="linear-gradient-9" x1="296.17" y1="236.81" x2="417.76" y2="236.81" gradientTransform="translate(-59.03 339.02) rotate(-47.36)" gradientUnits="userSpaceOnUse"><stop offset="0" stop-color="#063" stop-opacity="0"/><stop offset="1" stop-color="#9c9" stop-opacity="0.2"/></linearGradient><linearGradient id="linear-gradient-10" x1="381.99" y1="332.42" x2="405.36" y2="332.42" gradientTransform="matrix(1, 0, 0, 1, 0, 0)" xlink:href="#linear-gradient-5"/><linearGradient id="Degradado_sin_nombre_9-3" x1="254.63" y1="354.65" x2="322.87" y2="354.65" xlink:href="#Degradado_sin_nombre_9"/><linearGradient id="linear-gradient-11" x1="243.22" y1="264.81" x2="302.82" y2="264.81" gradientTransform="matrix(1, 0, 0, 1, 0, 0)" xlink:href="#linear-gradient-5"/><linearGradient id="Degradado_sin_nombre_14" x1="254.63" y1="258.32" x2="267.72" y2="258.32" gradientUnits="userSpaceOnUse"><stop offset="0" stop-color="#c5cce9"/><stop offset="1" stop-color="#a2afdb"/></linearGradient><radialGradient id="Degradado_sin_nombre_8-2" cx="274.17" cy="296.37" r="65.26" gradientTransform="matrix(1, 0, 0, 1, 0, 0)" xlink:href="#Degradado_sin_nombre_8"/><linearGradient id="Degradado_sin_nombre_14-2" x1="274.46" y1="259.13" x2="299.19" y2="259.13" xlink:href="#Degradado_sin_nombre_14"/><radialGradient id="Degradado_sin_nombre_8-3" cx="274.17" cy="296.37" r="65.26" gradientTransform="matrix(1, 0, 0, 1, 0, 0)" xlink:href="#Degradado_sin_nombre_8"/><linearGradient id="linear-gradient-12" x1="215.23" y1="334.69" x2="330.81" y2="334.69" gradientTransform="matrix(1, 0, 0, 1, 0, 0)" xlink:href="#linear-gradient-5"/><linearGradient id="Degradado_sin_nombre_2" x1="273.02" y1="413.74" x2="273.02" y2="317.25" gradientUnits="userSpaceOnUse"><stop offset="0" stop-color="#bcbcbc"/><stop offset="1" stop-color="#f3f5f4"/></linearGradient><linearGradient id="Degradado_sin_nombre_19" x1="256.04" y1="272.79" x2="290.39" y2="272.79" gradientUnits="userSpaceOnUse"><stop offset="0" stop-color="#f3f5f4"/><stop offset="1" stop-color="#bcbcbc"/></linearGradient><linearGradient id="Degradado_sin_nombre_2-2" x1="255.81" y1="276.65" x2="290.24" y2="276.65" xlink:href="#Degradado_sin_nombre_2"/><radialGradient id="Degradado_sin_nombre_8-4" cx="234.06" cy="255.71" r="43.01" gradientTransform="matrix(1, 0, 0, 1, 0, 0)" xlink:href="#Degradado_sin_nombre_8"/><radialGradient id="Degradado_sin_nombre_8-5" cx="234.06" cy="255.71" r="43.01" gradientTransform="matrix(1, 0, 0, 1, 0, 0)" xlink:href="#Degradado_sin_nombre_8"/><linearGradient id="Degradado_sin_nombre_9-4" x1="203.62" y1="179.39" x2="258.74" y2="179.39" gradientTransform="translate(370.86 -77.74) rotate(80.7)" xlink:href="#Degradado_sin_nombre_9"/><radialGradient id="Degradado_sin_nombre_25" cx="144.74" cy="116.07" r="78.54" gradientUnits="userSpaceOnUse"><stop offset="0.08" stop-color="#f0dc20"/><stop offset="1" stop-color="#f07a20"/></radialGradient><clipPath id="clip-path-2" transform="translate(-107.09 -30.1)"><circle class="cls-1" cx="231.18" cy="179.39" r="23.19"/></clipPath><linearGradient id="linear-gradient-13" x1="220.2" y1="373.99" x2="223.45" y2="362.43" gradientTransform="matrix(-1, 0, 0, 1, 823.5, 0)" gradientUnits="userSpaceOnUse"><stop offset="0" stop-color="#f4a238"/><stop offset="1" stop-color="#ffc949"/></linearGradient><linearGradient id="linear-gradient-14" x1="219.64" y1="374.38" x2="215.62" y2="366.06" gradientTransform="matrix(-1, 0, 0, 1, 823.5, 0)" xlink:href="#linear-gradient-5"/><linearGradient id="linear-gradient-15" x1="224.64" y1="374.93" x2="226.07" y2="369.57" gradientTransform="matrix(-1, 0, 0, 1, 823.5, 0)" xlink:href="#linear-gradient-5"/><linearGradient id="linear-gradient-16" x1="478.82" y1="388.36" x2="482.07" y2="376.8" xlink:href="#linear-gradient-13"/><linearGradient id="linear-gradient-17" x1="478.25" y1="388.75" x2="474.24" y2="380.44" gradientTransform="matrix(-1, 0, 0, 1, 823.5, 0)" xlink:href="#linear-gradient-5"/><linearGradient id="linear-gradient-18" x1="483.26" y1="389.3" x2="484.69" y2="383.95" gradientTransform="matrix(-1, 0, 0, 1, 823.5, 0)" xlink:href="#linear-gradient-5"/><linearGradient id="linear-gradient-19" x1="444.05" y1="149.61" x2="496.78" y2="149.61" gradientTransform="matrix(1, 0, 0, 1, 0, 0)" xlink:href="#linear-gradient-5"/><linearGradient id="linear-gradient-20" x1="548.3" y1="163.38" x2="548.3" y2="163.38" gradientUnits="userSpaceOnUse"><stop offset="0" stop-color="#2e7d32"/><stop offset="1" stop-color="#43a047"/></linearGradient><linearGradient id="linear-gradient-21" x1="546.06" y1="163.38" x2="550.55" y2="163.38" xlink:href="#linear-gradient-20"/></defs><g class="cls-2"><g id="OBJECTS"><g class="cls-3"><path class="cls-4" d="M585.24,168.61C581.2,130.13,560,94,532.43,66.29c-11.25-11.29-24-21.68-39-26.9s-32.87-4.52-45.67,5c-9.54,7.07-15.33,18.09-23.93,26.28-17.78,17-45.11,19.57-69.36,15.59s-47.33-13.52-71.59-17.48-51.58-1.26-69.3,15.78c-20.65,19.84-21.9,52.47-16.89,80.66,1.7,9.55,3.92,19.56.82,28.76-4.66,13.84-19.4,21-31.28,29.49-29.63,21.27-46,59.64-40.81,95.75,5.7,39.69,35.41,73.07,71.11,91.33S273.25,433.8,313.35,434a345.26,345.26,0,0,0,51.12-3.08c49.11-7.12,95.33-28.71,136-57.08,22.74-15.84,44.19-34.08,60.42-56.55C591.48,275.05,599,218.67,585.24,168.61Z" transform="translate(-107.09 -30.1)"/><path class="cls-4" d="M591.24,168.61C586,121.61,558,76.53,520.68,47.86c-18.22-14-42.57-23-65.19-14.4-11.35,4.31-19,12.64-26.33,21.94-7.17,9-14.72,16.79-25.6,21.23-22.13,9-46.77,5-69.09-1-24.4-6.48-48.77-15.31-74.38-14.45-22.11.75-44,8.59-57.51,26.84-13.07,17.61-15.67,41-13.88,62.25,1,12,5.51,24.6,4.21,36.62-1.21,11.23-10.26,18.18-19,24.08-9,6.1-17.93,12.05-25.47,20a109,109,0,0,0-28.63,91.26c3.41,21.49,13.94,41.34,28,57.74,32.1,37.47,80.5,53.46,128.27,58.2,53.07,5.26,106.81.41,156.35-20a370.38,370.38,0,0,0,66.09-35.7c20.94-14.15,41.07-30.08,57.54-49.37,31-36.28,45.19-83.87,41.09-131.3A197.35,197.35,0,0,0,591,167c-2-7.44-13.59-4.28-11.57,3.19,11.61,42.83,7.69,90.2-14.18,129.19-23.15,41.28-65.27,71-106.14,92.95a306.49,306.49,0,0,1-67.49,27c-25,6.54-50.54,8.78-76.32,8.73-47.36-.07-97.61-6.71-136.7-35.64-33-24.45-55.18-64.87-46-106.51a97.87,97.87,0,0,1,30.82-52.59c14.66-12.81,37.13-20.55,40.93-42.1,2.07-11.74-1.55-23.27-3-34.85a121.91,121.91,0,0,1-.28-31.53c2.79-20.45,13.59-38.77,33.4-46.58,45-17.74,90.84,14.15,135.89,15.59,20.65.66,42.38-4.32,57.72-18.92,8.18-7.79,13.61-18.37,22.64-25.29,8.44-6.46,19.46-8.34,29.84-7.1,22.65,2.7,40.95,20.11,55.5,36.34,15.09,16.83,27.73,36.38,35.49,57.68a138.46,138.46,0,0,1,7.71,32.09C580.08,176.2,592.09,176.28,591.24,168.61Z" transform="translate(-107.09 -30.1)"/></g><path class="cls-5" d="M472,190.86a21.31,21.31,0,0,1-.33,2.47" transform="translate(-107.09 -30.1)"/><path class="cls-6" d="M470.39,198.16c-3.62,10.26-15.25,25.83-52.27,8.32-55.7-26.34-77.32-99.29-137.32-72.69s53.9,102.7,14,135.35c-57.9,47.39-120.13-6.85-98.51-53.07" transform="translate(-107.09 -30.1)"/><path class="cls-5" d="M197.4,213.83c.39-.73.8-1.45,1.23-2.18" transform="translate(-107.09 -30.1)"/><g class="cls-7"><path class="cls-8" d="M218.85,318.32c-10.55,5.12-8.37,34.25,2.58,55.08L199.67,348c-1-5.28-1.82-13.91.27-25.53,3.25-18.06,3.5-37.89-7.06-32.76-9.9,4.8-8.58,30.77.67,51.17l-28-32.57a45.74,45.74,0,0,1,.48-14.24c2-11.38,2.21-23.87-4.45-20.64-5.77,2.8-5.49,17-.78,29.34l-9.06-10.55a66.2,66.2,0,0,1-7.4-15.71c-4.47-15.34-11.54-29-17.41-22.53s6.72,29.87,23.3,41.87l4.66,5.43c-11.92-9-30.12-13.22-34.35-7.09s8.17,7.83,19.73,7.53c8.8-.22,14.62,1.64,17.47,2.88l22,25.66c-18.93-14.13-47.66-20.83-54.35-11.13s13,12.42,31.31,11.94c13.87-.35,23.07,2.57,27.63,4.54l26.4,30.76c-18.92-13.58-47.45-20.32-53.25-10.33-4.48,7.7,7.8,11.57,28.5,11.13A75.58,75.58,0,0,1,216,372.46L228.44,387a5.91,5.91,0,0,0,2.66-2.28l-4.95-5.77c-1.24-4.86-2.67-14.33-.24-27.82C229.16,333,229.41,313.2,218.85,318.32Z" transform="translate(-107.09 -30.1)"/></g><path class="cls-9" d="M218,378.8c-3-14.92-17.2-24.82-31.2-30.8s-29.37-9.94-40.72-20.08c-4.73-4.22-8.57-11.87-4.2-16.46a10.62,10.62,0,0,1,5.94-2.76c13.5-2.42,15.93,6,28.87,1.48,4.48-1.57,8.75-6.1,7.23-10.59a11.25,11.25,0,0,0-3.17-4.27c-17-16.12-28.35-22.67-48.88-34-11.58-6.36-23.56-15.7-24.75-28.86a6.87,6.87,0,0,1,.6-4.11c1.47-2.54,5.07-2.72,8-2.21,14.07,2.46,10.37,3.83,23.21,10.09,3.29,1.6,7.82,2.68,10.16-.15,1.48-1.79,1.32-4.42.74-6.67-3.76-14.57-34.51-29.7-15.09-37.15,5.08-1.94,11.11,5.6,15.41,2.27,3.64-2.82.09-8.45-3.32-11.53-5-4.51-10.19-10.82-8.1-17.21,1.84-5.62,8.9-8.12,14.65-6.73s10.34,5.61,14.34,10a100.22,100.22,0,0,1,16.38,23.34c5.18,10.49,9.15,23.2,19.84,28,6.38,2.84,13.83,2,20.48-.07,3.41-1.09,7.13-2.5,10.42-1.11,2.42,1,4,3.35,5.16,5.71a29.83,29.83,0,0,1-1.54,28.25c-3.6,5.75-9.14,10.18-12.13,16.26s-1.94,15.18,4.46,17.38c4.61,1.59,9.45-1.11,14.07-2.66,8.5-2.85,18.47-1.58,25.52,4s10.66,15.42,8.09,24c-4.58,15.39-23.76,20-36.08,30.27a42.79,42.79,0,0,0-14.56,38.48" transform="translate(-107.09 -30.1)"/><path class="cls-10" d="M149.39,164.56s66,101.89,74,215.88" transform="translate(-107.09 -30.1)"/><path class="cls-10" d="M138.92,199.75s42.78,29.36,54.67,59.49" transform="translate(-107.09 -30.1)"/><path class="cls-10" d="M233.57,229.45s-27.25,26.66-29.16,55.74" transform="translate(-107.09 -30.1)"/><path class="cls-10" d="M119.75,239.16s74.24,34.14,88,57.12" transform="translate(-107.09 -30.1)"/><path class="cls-10" d="M268.8,302.13S221,315.91,219.5,347.35" transform="translate(-107.09 -30.1)"/><path class="cls-10" d="M152.69,319.17s57.91,12.19,68.49,39.48" transform="translate(-107.09 -30.1)"/><path class="cls-11" d="M590.92,197.93c-1.8-10.23,4.31-21,.44-30.83-2.48-6.31-8.85-9.48-15.2-6.63-8.06,3.62-10.42,12.15-12.35,20-1.38,5.55-3,10.63-6.87,15-3.32,3.76-7.43,6.7-11.07,10.11-6.42,6-9.46,12.8-10.41,21.48-1.05,9.63.16,20.75-7,28.36-5.86,6.21-15.58,9.15-18.32,18-3,9.65,5.51,22.73-3.45,30.14-3.79,3.13-8.26,4.73-11.54,8.56a27.66,27.66,0,0,0-5.47,10.22,27.32,27.32,0,0,0,3.74,23.78,1.38,1.38,0,0,0,.78.55c4,7.38,8.73,14.89,16.21,19.08,6.62,3.71,15.05,4.53,21.45-.07,10.9-7.84,10.24-23.86,17.39-34.24a15.32,15.32,0,0,1,10.36-6.7c4.88-.89,9.95-.05,14.58-2.15,6.79-3.07,9.73-10.27,10.62-17.25,1.35-10.58-2.9-21.58.64-31.92,3.19-9.27,12.08-15.1,15.64-24.2C607.9,231.74,593.86,214.63,590.92,197.93Z" transform="translate(-107.09 -30.1)"/><path class="cls-12" d="M576.26,181.33c-.06,12.87-4.89,25-9.19,37-4.17,11.57-8.36,23.13-12.74,34.63-8.69,22.83-18.14,45.42-29.57,67a343.45,343.45,0,0,1-21.3,35.23c-.91,1.33,1.25,2.58,2.16,1.26,14-20.26,25.54-42.16,35.53-64.67s18.57-45.78,27-69c4.82-13.36,10.58-27,10.65-41.46a1.25,1.25,0,0,0-2.5,0Z" transform="translate(-107.09 -30.1)"/><path class="cls-12" d="M520,332.36q-2.34-17.62-5.35-35.16c-.27-1.58-2.68-.91-2.41.66q3,17.2,5.26,34.5c.21,1.57,2.71,1.59,2.5,0Z" transform="translate(-107.09 -30.1)"/><path class="cls-12" d="M531.16,314c3.33-1.54,7-1.9,10.63-2.39q5.85-.78,11.61-2t11.18-2.77a36.88,36.88,0,0,0,9.76-4c1.35-.86.1-3-1.27-2.16a36.13,36.13,0,0,1-9.82,4q-5.67,1.61-11.45,2.78c-3.8.77-7.62,1.39-11.46,1.9a34.7,34.7,0,0,0-10.44,2.54c-1.46.67-.19,2.83,1.26,2.15Z" transform="translate(-107.09 -30.1)"/><path class="cls-12" d="M544.79,283.06c.77-3.84.2-7.64-.39-11.46q-.95-6.24-1.64-12.52-1.35-12.27-1.72-24.63a1.25,1.25,0,0,0-2.5,0q.38,12.11,1.67,24.15.63,5.88,1.49,11.73c.59,4,1.48,8.06.68,12.06-.31,1.57,2.1,2.24,2.41.67Z" transform="translate(-107.09 -30.1)"/><path class="cls-12" d="M556.44,253.85a110.31,110.31,0,0,0,34.71-13.69,1.25,1.25,0,0,0-1.26-2.16,108.3,108.3,0,0,1-34.11,13.44c-1.58.33-.91,2.74.66,2.41Z" transform="translate(-107.09 -30.1)"/><path class="cls-12" d="M569.09,218.93A56.56,56.56,0,0,1,564,197c0-1.6-2.55-1.61-2.5,0a59.83,59.83,0,0,0,5.44,23.16c.67,1.46,2.83.19,2.16-1.26Z" transform="translate(-107.09 -30.1)"/><path class="cls-13" d="M551.91,247.14c-10.64-4.92-31.81,15.21-41,36.87l5.85-32.9c3.42-4.16,9.62-10.22,19.94-16,16-8.92,31.54-21.27,20.89-26.2-10-4.62-29.26,12.84-39.19,32.91l7.52-42.25A45.31,45.31,0,0,1,537.25,191c10.11-5.62,19.88-13.41,13.16-16.52-5.83-2.7-16.67,6.54-23.21,18l2.43-13.69a66.38,66.38,0,0,1,7.48-15.67c9-13.18,15.18-27.32,6.42-27.74s-18.87,24.11-17.66,44.54l-1.26,7c-.61-14.91-8.83-31.69-16.26-31.08s-.88,11.27,6.67,20c5.75,6.67,8,12.35,8.83,15.35l-5.92,33.28c-1-23.6-14-50.08-25.79-49.12s-1.41,17.9,10.57,31.8c9.05,10.51,12.62,19.48,14,24.26l-7.09,39.91c-1.47-23.24-14.31-49.59-25.72-47.76-8.8,1.41-4,13.36,9.42,29.11a75.48,75.48,0,0,1,14.9,26.51L504.85,298a5.89,5.89,0,0,0,3.46.61l1.33-7.48c3-4,9.41-11.14,21.38-17.79C547.06,264.42,562.57,252.07,551.91,247.14Z" transform="translate(-107.09 -30.1)"/><path class="cls-14" d="M580.56,364.86c-6.64-9.66-35.12-3.12-54.06,10.84l21.79-25.33c5.07-1.83,13.49-3.89,25.29-3.57,18.35.49,38-2.24,31.32-11.91-6.23-9.07-31.71-3.86-50.48,8.36l28-32.53a45.73,45.73,0,0,1,14.15-1.67c11.56.32,23.94-1.4,19.74-7.5-3.64-5.29-17.68-2.87-29.13,3.63l9.07-10.54A66.44,66.44,0,0,1,610.66,285c14.49-6.73,27-15.78,19.66-20.6s-28.52,11.14-37.9,29.33l-4.66,5.42c7.06-13.13,8.54-31.77,1.84-35s-6.51,9.26-4.48,20.64c1.55,8.67.58,14.7-.22,17.71l-22,25.63c11.13-20.84,13.43-50.25,2.83-55.41s-10.33,14.68-7.1,32.75c2.44,13.66.93,23.19-.32,28l-26.45,30.73c10.58-20.75,13-50,2.21-54.21-8.29-3.27-10.27,9.46-6.72,29.86a75.54,75.54,0,0,1-.69,30.4l-12.46,14.47a5.9,5.9,0,0,0,2.66,2.29l5-5.76c4.62-2,13.77-4.79,27.46-4.42C567.58,377.26,587.22,374.53,580.56,364.86Z" transform="translate(-107.09 -30.1)"/><path class="cls-15" d="M517.93,290.34,403.53,364.2a5.2,5.2,0,0,1-7.18-1.54l-42.22-65.41a5.19,5.19,0,0,1,1.54-7.18l114.4-73.86a5.2,5.2,0,0,1,7.18,1.55l42.23,65.4A5.2,5.2,0,0,1,517.93,290.34Z" transform="translate(-107.09 -30.1)"/><rect class="cls-16" x="356.97" y="267.09" width="146.56" height="25.93" transform="translate(-190.2 248.05) rotate(-32.85)"/><rect class="cls-17" x="383.4" y="316.21" width="69.44" height="3.69" rx="1.26" transform="matrix(0.84, -0.54, 0.54, 0.84, -212.75, 247.54)"/><rect class="cls-17" x="387.32" y="322.28" width="69.44" height="3.69" rx="1.26" transform="translate(-215.42 250.64) rotate(-32.85)"/><rect class="cls-17" x="392.61" y="333.02" width="52.19" height="3.69" rx="1.26" transform="translate(-221.78 250.55) rotate(-32.85)"/><rect class="cls-18" x="479.52" y="273.72" width="23.38" height="14.82" rx="3.14" transform="translate(-181.04 281.28) rotate(-32.85)"/><rect class="cls-19" x="264.56" y="362.36" width="65.61" height="15.35"/><rect class="cls-20" x="264.56" y="362.36" width="65.61" height="2.2"/><rect class="cls-21" x="270.1" y="362.36" width="2.85" height="15.35"/><rect class="cls-21" x="278.71" y="362.36" width="2.85" height="15.35"/><rect class="cls-21" x="287.32" y="362.36" width="2.85" height="15.35"/><rect class="cls-22" x="295.94" y="362.36" width="2.85" height="15.35"/><rect class="cls-22" x="304.55" y="362.36" width="2.85" height="15.35"/><rect class="cls-22" x="313.16" y="362.36" width="2.85" height="15.35"/><rect class="cls-22" x="321.77" y="362.36" width="2.85" height="15.35"/><rect class="cls-23" x="289.84" y="362.36" width="35.9" height="15.35"/><rect class="cls-24" x="316.63" y="362.36" width="9.1" height="15.35"/><rect class="cls-25" x="342.15" y="362.36" width="65.61" height="15.35"/><rect class="cls-20" x="342.15" y="362.36" width="65.61" height="2.2"/><rect class="cls-21" x="347.7" y="362.36" width="2.85" height="15.35"/><rect class="cls-21" x="356.31" y="362.36" width="2.85" height="15.35"/><rect class="cls-21" x="364.92" y="362.36" width="2.85" height="15.35"/><rect class="cls-22" x="373.53" y="362.36" width="2.85" height="15.35"/><rect class="cls-22" x="382.14" y="362.36" width="2.85" height="15.35"/><rect class="cls-22" x="390.75" y="362.36" width="2.85" height="15.35"/><rect class="cls-22" x="399.37" y="362.36" width="2.85" height="15.35"/><rect class="cls-23" x="367.43" y="362.36" width="35.9" height="15.35"/><rect class="cls-24" x="394.23" y="362.36" width="9.1" height="15.35"/><path class="cls-26" d="M417.9,157.88q-2.76-.85-5.49-1.63v-8.12A16.11,16.11,0,0,0,396.3,132H317.93a16.11,16.11,0,0,0-16.11,16.11v8.12q-2.73.78-5.49,1.63h0a8.11,8.11,0,0,0-5.72,7.87l2.46,182A27,27,0,0,0,320,374.37h74.19a27,27,0,0,0,27-26.59l2.46-182a8.11,8.11,0,0,0-5.72-7.87Z" transform="translate(-107.09 -30.1)"/><rect class="cls-17" x="201.58" y="45.13" width="96.88" height="111.89"/><rect class="cls-27" x="201.58" y="45.13" width="96.88" height="111.89"/><path class="cls-28" d="M298.6,186.19l5.09-1.57c36.77-11.4,69.78-11.4,106.56,0l5.08,1.57L413.1,351.07a23.62,23.62,0,0,1-23.62,23.3h-65a23.63,23.63,0,0,1-23.63-23.3Z" transform="translate(-107.09 -30.1)"/><rect class="cls-17" x="199.98" y="170.58" width="99.79" height="74.54"/><rect class="cls-29" x="199.98" y="170.58" width="99.79" height="12.93"/><circle class="cls-30" cx="356.97" cy="244.33" r="23.31" transform="translate(-128.77 423.38) rotate(-63.3)"/><path class="cls-26" d="M356.23,255.16a2.54,2.54,0,0,1-2.11-1.13l-10.39-15.25a2.57,2.57,0,0,1,4.24-2.89L356,247.74l15.77-28a2.57,2.57,0,0,1,4.47,2.52l-17.8,31.57a2.56,2.56,0,0,1-2.13,1.3Z" transform="translate(-107.09 -30.1)"/><rect class="cls-17" x="199.98" y="260.1" width="16.11" height="10.17" rx="2.62"/><rect class="cls-17" x="222.65" y="260.1" width="16.11" height="10.17" rx="2.62"/><rect class="cls-17" x="261" y="260.1" width="16.11" height="10.17" rx="2.63"/><rect class="cls-17" x="283.66" y="260.1" width="16.11" height="10.17" rx="2.63"/><rect class="cls-17" x="202.89" y="278.86" width="21.35" height="12.57" rx="4.3"/><rect class="cls-17" x="239.21" y="278.86" width="21.35" height="12.57" rx="4.3"/><rect class="cls-17" x="275.52" y="278.86" width="21.35" height="12.57" rx="4.3"/><rect class="cls-17" x="202.89" y="295.62" width="21.35" height="12.57" rx="4.3"/><rect class="cls-17" x="239.21" y="295.62" width="21.35" height="12.57" rx="4.3"/><rect class="cls-17" x="275.52" y="295.62" width="21.35" height="12.57" rx="4.3"/><rect class="cls-17" x="202.89" y="312.38" width="21.35" height="12.57" rx="4.3"/><rect class="cls-17" x="239.21" y="312.38" width="21.35" height="12.57" rx="4.3"/><rect class="cls-17" x="275.52" y="312.38" width="21.35" height="12.57" rx="4.3"/><g class="cls-31"><rect class="cls-32" x="346.04" y="164.23" width="21.86" height="145.16" transform="translate(182.3 -216.3) rotate(47.36)"/></g><rect class="cls-33" x="223.75" y="50.67" width="52.55" height="5.14"/><g class="cls-34"><line class="cls-12" x1="208.04" y1="81.15" x2="291.72" y2="81.15"/><line class="cls-12" x1="208.04" y1="66.32" x2="291.72" y2="66.32"/><line class="cls-12" x1="208.04" y1="140.27" x2="291.72" y2="140.27"/><rect class="cls-12" x="208.04" y="89.29" width="22.67" height="2.63"/><rect class="cls-12" x="236.22" y="89.29" width="22.67" height="2.63"/><rect class="cls-12" x="286.13" y="89.29" width="5.59" height="2.63"/><rect class="cls-12" x="286.13" y="96.32" width="5.59" height="2.63"/><rect class="cls-12" x="286.13" y="103.34" width="5.59" height="2.63"/><rect class="cls-12" x="286.13" y="110.37" width="5.59" height="2.63"/><rect class="cls-12" x="286.13" y="117.39" width="5.59" height="2.63"/><rect class="cls-12" x="286.13" y="124.42" width="5.59" height="2.63"/><rect class="cls-12" x="280.39" y="89.29" width="2.94" height="2.63"/><rect class="cls-12" x="280.39" y="96.32" width="2.94" height="2.63"/><rect class="cls-12" x="280.39" y="103.34" width="2.94" height="2.63"/><rect class="cls-12" x="280.39" y="110.37" width="2.94" height="2.63"/><rect class="cls-12" x="280.39" y="117.39" width="2.94" height="2.63"/><rect class="cls-12" x="280.39" y="124.42" width="2.94" height="2.63"/><rect class="cls-12" x="208.04" y="96.32" width="29.04" height="2.63"/><rect class="cls-12" x="244.15" y="96.32" width="19.84" height="2.63"/><rect class="cls-12" x="208.04" y="104.81" width="22.67" height="2.63"/><rect class="cls-12" x="236.22" y="104.81" width="22.67" height="2.63"/><rect class="cls-12" x="208.04" y="111.83" width="29.04" height="2.63"/><rect class="cls-12" x="208.04" y="72.25" width="44.93" height="2.63"/><rect class="cls-12" x="259.96" y="72.25" width="31.76" height="2.63"/><rect class="cls-12" x="244.15" y="111.83" width="29.04" height="2.63"/><rect class="cls-12" x="208.04" y="120.32" width="22.67" height="2.63"/><rect class="cls-12" x="236.22" y="120.32" width="22.67" height="2.63"/><rect class="cls-12" x="208.04" y="127.34" width="29.04" height="2.63"/><rect class="cls-12" x="244.15" y="127.34" width="29.04" height="2.63"/></g><rect class="cls-26" x="269.76" y="266.41" width="146.56" height="88.23" rx="5.19"/><rect class="cls-35" x="269.76" y="285.48" width="146.56" height="25.93"/><rect class="cls-17" x="277.52" y="321.95" width="69.44" height="3.69" rx="1.26"/><rect class="cls-17" x="277.52" y="329.17" width="69.44" height="3.69" rx="1.26"/><rect class="cls-17" x="277.52" y="336.39" width="52.19" height="3.69" rx="1.26"/><rect class="cls-36" x="381.99" y="325.01" width="23.38" height="14.82" rx="3.14"/><rect class="cls-37" x="254.63" y="346.67" width="68.25" height="15.97"/><rect class="cls-20" x="254.63" y="346.67" width="68.25" height="2.29"/><rect class="cls-21" x="260.39" y="346.67" width="2.97" height="15.97"/><rect class="cls-21" x="269.35" y="346.67" width="2.97" height="15.97"/><rect class="cls-21" x="278.31" y="346.67" width="2.97" height="15.97"/><rect class="cls-22" x="287.27" y="346.67" width="2.97" height="15.97"/><rect class="cls-22" x="296.23" y="346.67" width="2.97" height="15.97"/><rect class="cls-22" x="305.18" y="346.67" width="2.97" height="15.97"/><rect class="cls-22" x="314.14" y="346.67" width="2.97" height="15.97"/><rect class="cls-23" x="280.92" y="346.67" width="37.34" height="15.97"/><rect class="cls-24" x="308.8" y="346.67" width="9.47" height="15.97"/><path class="cls-38" d="M286.9,245.48A16,16,0,0,1,275,241.94a3,3,0,0,0-3.91,0,16,16,0,0,1-11.93,3.54c-9.18-.87-14.28-2.42-15.92.93l19,32.53L273,288.38l10.82-9.44,19-32.53C301.19,243.06,296.09,244.61,286.9,245.48Z" transform="translate(-107.09 -30.1)"/><path class="cls-39" d="M265.35,244.94a16.68,16.68,0,0,1-6.21.54c-1.18-.11-2.3-.23-3.35-.36l11.93,26.59Z" transform="translate(-107.09 -30.1)"/><path class="cls-40" d="M265.35,244.94a16.68,16.68,0,0,1-6.21.54c-1.18-.11-2.3-.23-3.35-.36l11.93,26.59Z" transform="translate(-107.09 -30.1)"/><path class="cls-41" d="M278.61,273.88l18.59-29.49c-2.58.13-6,.68-10.3,1.09a16.39,16.39,0,0,1-7.58-1l-4.86,27.23Z" transform="translate(-107.09 -30.1)"/><path class="cls-42" d="M278.61,273.88l18.59-29.49c-2.58.13-6,.68-10.3,1.09a16.39,16.39,0,0,1-7.58-1l-4.86,27.23Z" transform="translate(-107.09 -30.1)"/><path class="cls-43" d="M285.36,273.88l-.35,0v-2.13l-12,1.07-12-1.07v2.13l-.35,0s-51.78,40.64-44.81,101.38c0,0-1.44,23.31,57.14,22.39,58.59.92,57.15-22.39,57.15-22.39C337.14,314.52,285.36,273.88,285.36,273.88Z" transform="translate(-107.09 -30.1)"/><path class="cls-44" d="M276.91,332.73V321.32a27.31,27.31,0,0,1,10.27,3.49l3.36-8.26a30.43,30.43,0,0,0-13.63-4.09v-7.32h-6.7v7.45c-10.61,1.21-15.78,7.32-15.78,14.43,0,9.6,8.33,12.08,15.78,13.89v11.21a27.11,27.11,0,0,1-13-4.76l-3.69,8.18c3.69,2.89,10.06,5,16.71,5.37v7.31h6.7v-7.51c10.54-1.28,15.64-7.32,15.64-14.3C292.55,337,284.36,334.47,276.91,332.73Zm-6.7-1.68c-3-.94-5-2.22-5-4.57s1.41-4.16,5-5Zm6.7,20.8v-9.26c2.89,1,4.84,2.28,4.84,4.63C281.75,349.37,280.27,351.11,276.91,351.85Z" transform="translate(-107.09 -30.1)"/><path class="cls-45" d="M258.53,276.36a2.49,2.49,0,0,1-.18-5l29.37-2.17a2.49,2.49,0,1,1,.37,5l-29.38,2.17Z" transform="translate(-107.09 -30.1)"/><path class="cls-46" d="M287.75,279.42h-.05l-29.45-.56a2.49,2.49,0,0,1,.05-5h.05l29.45.56a2.49,2.49,0,0,1-.05,5Z" transform="translate(-107.09 -30.1)"/><path class="cls-47" d="M231.18,222.36c-1,9.36-6.15,16.58-12.52,17.12,6.37.53,11.55,7.75,12.52,17.11,1-9.36,6.15-16.58,12.52-17.11C237.33,238.94,232.15,231.72,231.18,222.36Z" transform="translate(-107.09 -30.1)"/><path class="cls-48" d="M246.32,216c-.55,5.36-3.52,9.5-7.17,9.8,3.65.31,6.62,4.45,7.17,9.81.56-5.36,3.53-9.5,7.18-9.81C249.85,225.5,246.88,221.36,246.32,216Z" transform="translate(-107.09 -30.1)"/><circle class="cls-49" cx="231.18" cy="179.39" r="27.56" transform="translate(-90.29 348.45) rotate(-80.7)"/><circle class="cls-50" cx="124.09" cy="149.29" r="23.19"/><circle class="cls-51" cx="231.18" cy="179.39" r="22.55" transform="translate(-129.29 295.65) rotate(-67.82)"/><g class="cls-52"><path class="cls-53" d="M233,190.41v3.48h-3.1V190.5a14.73,14.73,0,0,1-7.74-2.48l1.71-3.79a12.46,12.46,0,0,0,6,2.2v-5.19c-3.45-.83-7.31-2-7.31-6.43,0-3.29,2.4-6.12,7.31-6.68v-3.45H233v3.39a14.08,14.08,0,0,1,6.31,1.89l-1.55,3.83a12.65,12.65,0,0,0-4.76-1.62v5.28c3.45.81,7.24,2,7.24,6.34C240.22,187,237.86,189.82,233,190.41Zm-3.1-13.73v-4.42c-1.65.38-2.3,1.28-2.3,2.3S228.51,176.24,229.88,176.68Zm5.34,7.48c0-1.08-.9-1.67-2.24-2.14v4.29C234.54,186,235.22,185.16,235.22,184.16Z" transform="translate(-107.09 -30.1)"/></g><g class="cls-54"><g class="cls-55"><rect class="cls-56" x="227.36" y="155.46" width="13.49" height="59.44" transform="translate(173.01 -139.85) rotate(60.52)"/><polygon class="cls-56" points="99.08 160.91 94.61 156.79 146.36 127.53 150.83 131.65 99.08 160.91"/></g></g><path class="cls-57" d="M605,371.39s-.33-11.65-4.35-12.51-4.59,7.26,0,15.29Z" transform="translate(-107.09 -30.1)"/><path class="cls-58" d="M600.19,361.94s.81,2.83,2.74,10.78" transform="translate(-107.09 -30.1)"/><path class="cls-59" d="M606.4,374.17s6.12-5.92,3.82-8.79-8,2.1-9.56,8.79Z" transform="translate(-107.09 -30.1)"/><path class="cls-58" d="M608.5,367a21.87,21.87,0,0,0-4.49,6.31" transform="translate(-107.09 -30.1)"/><path class="cls-60" d="M601.22,374.17s-1.56-6.74-4.72-6.16,0,6.12,0,6.12Z" transform="translate(-107.09 -30.1)"/><line class="cls-58" x1="489.99" y1="339.24" x2="491.04" y2="343.16"/><path class="cls-61" d="M346.39,385.76s-.33-11.65-4.34-12.51-4.59,7.26,0,15.3Z" transform="translate(-107.09 -30.1)"/><path class="cls-58" d="M341.57,376.31s.81,2.83,2.75,10.78" transform="translate(-107.09 -30.1)"/><path class="cls-62" d="M347.78,388.55s6.12-5.93,3.83-8.8-8,2.1-9.56,8.8Z" transform="translate(-107.09 -30.1)"/><path class="cls-58" d="M349.89,381.37a21.8,21.8,0,0,0-4.5,6.31" transform="translate(-107.09 -30.1)"/><path class="cls-63" d="M342.61,388.55s-1.57-6.74-4.72-6.17,0,6.12,0,6.12Z" transform="translate(-107.09 -30.1)"/><line class="cls-58" x1="231.37" y1="353.62" x2="232.43" y2="357.54"/><path class="cls-64" d="M470.42,116.85c-15.29,0-26.37,12.39-26.37,27.68,0,18.33,26.37,37.83,26.37,37.83s26.36-19.34,26.36-37.83C496.78,129.24,485.7,116.85,470.42,116.85Zm-.52,41.4a12.5,12.5,0,1,1,12.5-12.5A12.5,12.5,0,0,1,469.9,158.25Z" transform="translate(-107.09 -30.1)"/><g class="cls-3"><path class="cls-4" d="M160.87,112.8a7.34,7.34,0,0,0-.72,11.1,13.22,13.22,0,0,0,6-16.19c-4.5,1.62-9.06,4.21-11,8.56s0,10.65,4.74,11.54c3.67.7,7.26-2.13,8.73-5.56s1.32-7.3,1.15-11" transform="translate(-107.09 -30.1)"/><path class="cls-4" d="M156.66,108.59c-6.09,4.84-5.91,14.16-.72,19.52a6.08,6.08,0,0,0,7.22.93,19.34,19.34,0,0,0,8.71-22.92c-1-2.81-4.13-5.36-7.32-4.15-6.35,2.4-12.68,6-15.2,12.72a15.14,15.14,0,0,0,3.11,15.61c4.66,4.69,11.78,4.42,16.77.49,6.07-4.78,6.74-12.37,6.43-19.57-.33-7.63-12.24-7.67-11.91,0,.13,2.83.63,6.43-.83,9-.7,1.25-1.6,2.07-2.22,1.37-3.11-3.51,5-7.42,7-8.17l-7.33-4.16c1.33,3.72.28,7.45-3.24,9.47l7.21.93c-1-1-.2-2,.72-2.68,2.54-2,2.07-6.31,0-8.42-2.46-2.52-5.92-2-8.42,0Z" transform="translate(-107.09 -30.1)"/></g><path class="cls-65" d="M548.3,163.38" transform="translate(-107.09 -30.1)"/><path class="cls-66" d="M548.3,165.7c3,0,3-4.64,0-4.64s-3,4.64,0,4.64Z" transform="translate(-107.09 -30.1)"/></g></g></svg>